<svg width="44" height="44" viewBox="0 0 44 44" fill="none" xmlns="http://www.w3.org/2000/svg">
<path d="M43.8751 23.3263C43.8751 23.3263 43.8751 23.2013 43.8751 23.1545L39.922 8.87322C39.6014 7.70899 38.9085 6.68168 37.9493 5.94814C36.99 5.2146 35.8171 4.81513 34.6095 4.81072H30.9376L29.8126 1.18572C29.7039 0.862311 29.4923 0.583378 29.2102 0.391522C28.928 0.199666 28.5909 0.105434 28.2501 0.123219H15.7501C15.4226 0.122373 15.103 0.224498 14.8367 0.415159C14.5703 0.60582 14.3706 0.875373 14.2658 1.18572L13.0626 4.81072H9.39076C8.18319 4.81513 7.01024 5.2146 6.05099 5.94814C5.09174 6.68168 4.39891 7.70899 4.07826 8.87322L0.125134 23.1545C0.125134 23.1545 0.125134 23.2638 0.125134 23.3263C0.117794 23.4043 0.117794 23.4828 0.125134 23.5607V38.4045C0.125134 39.8549 0.701304 41.2459 1.72689 42.2715C2.75248 43.2971 4.14348 43.8732 5.59388 43.8732C7.04429 43.8732 8.43528 43.2971 9.46087 42.2715C10.4865 41.2459 11.0626 39.8549 11.0626 38.4045V36.0607H32.9376V38.4045C32.9376 39.8549 33.5138 41.2459 34.5394 42.2715C35.565 43.2971 36.956 43.8732 38.4064 43.8732C39.8568 43.8732 41.2478 43.2971 42.2734 42.2715C43.299 41.2459 43.8751 39.8549 43.8751 38.4045V23.5607C43.8825 23.4828 43.8825 23.4043 43.8751 23.3263ZM16.8751 3.24822H27.1251L27.6408 4.81072H16.3595L16.8751 3.24822ZM7.09388 9.70134C7.2307 9.19621 7.52949 8.74992 7.9444 8.43097C8.35932 8.11203 8.86743 7.93804 9.39076 7.93572H34.6095C35.1328 7.93804 35.641 8.11203 36.0559 8.43097C36.4708 8.74992 36.7696 9.19621 36.9064 9.70134L40.2658 21.9982H3.73451L7.09388 9.70134ZM7.93763 38.4045C7.93763 39.0261 7.6907 39.6222 7.25117 40.0617C6.81163 40.5013 6.21549 40.7482 5.59388 40.7482C4.97228 40.7482 4.37614 40.5013 3.9366 40.0617C3.49706 39.6222 3.25013 39.0261 3.25013 38.4045V36.0607H7.93763V38.4045ZM9.50013 32.9357H3.25013V29.8107H10.0939L11.6564 32.9357H9.50013ZM28.8439 32.9357H15.1564L13.5939 29.8107H30.4064L28.8439 32.9357ZM40.7501 38.4045C40.7501 39.0261 40.5032 39.6222 40.0637 40.0617C39.6241 40.5013 39.028 40.7482 38.4064 40.7482C37.7848 40.7482 37.1886 40.5013 36.7491 40.0617C36.3096 39.6222 36.0626 39.0261 36.0626 38.4045V36.0607H40.7501V38.4045ZM40.7501 32.9357H32.3439L33.9064 29.8107H40.7501V32.9357ZM40.7501 26.6857H3.25013V25.1232H40.7501V26.6857Z" fill="#50CD89"/>
</svg>
